<?xml version="1.0" encoding="UTF-8" standalone="no"?>
<svg width="500px" height="191px" viewBox="0 0 500 191" version="1.1" xmlns="http://www.w3.org/2000/svg" xmlns:xlink="http://www.w3.org/1999/xlink">
    <!-- Generator: Sketch 42 (36781) - http://www.bohemiancoding.com/sketch -->
    <title>score background</title>
    <desc>Created by Scott Thigpen.</desc>
    <defs></defs>
    <g id="Page-1" stroke="none" stroke-width="1" fill="none" fill-rule="evenodd">
        <g id="Artboard" stroke="#FFFFFF">
            <path d="M8,7 L493,7 L493,182 L8,182 L8,7 Z M8,38 L64,38 L64,152 L8,152 L8,38 Z M8,57 L43,57 L43,135 L8,135 L8,57 Z M63,135 C69.8999886,135 75.4935345,119.329966 75.4935345,100 C75.4935345,80.6700338 69.8999886,65 63,65 M493,38 L437,38 L437,152 L493,152 L493,38 Z M493,57 L458,57 L458,135 L493,135 L493,57 Z M438,135 C431.100011,135 425.506466,119.329966 425.506466,100 C425.506466,80.6700338 431.100011,65 438,65" id="Combined-Shape"></path>
        </g>
    </g>
</svg>
