<?xml version="1.0" encoding="UTF-8" standalone="no"?>
<svg width="50px" height="39px" viewBox="0 0 50 39" version="1.1" xmlns="http://www.w3.org/2000/svg" xmlns:xlink="http://www.w3.org/1999/xlink">
    <!-- Generator: Sketch 42 (36781) - http://www.bohemiancoding.com/sketch -->
    <title>git</title>
    <desc>Created by Scott Thigpen</desc>
    <defs></defs>
    <g id="Page-1" stroke="none" stroke-width="1" fill="none" fill-rule="evenodd">
        <g id="git" fill="#878787">
            <path d="M40.6078431,30.2131465 C41.7759209,30.2131465 42.722835,29.2764779 42.722835,28.1210385 C42.722835,26.9655992 41.7759209,26.0289306 40.6078431,26.0289306 C39.4397654,26.0289306 38.4928513,26.9655992 38.4928513,28.1210385 C38.4928513,29.2764779 39.4397654,30.2131465 40.6078431,30.2131465 Z M10.951948,8.45522362 L39.1357674,8.45522362 C40.262059,7.34074177 41.3561815,6.25615818 42.2169908,5.40039932 L46.3975786,1.24433949 C48.3928937,-0.739268912 50,-0.0653255526 50,2.73686041 L50,14.3471703 C50,14.6675427 49.9704061,14.9808804 49.9138072,15.2846157 L49.9138072,33.9218635 C49.9138072,36.7264408 47.6394127,39 44.8299435,39 L5.08386369,39 C2.27612331,39 0,36.7291317 0,33.9218635 L0,11.3578011 L0,2.65006868 C0,-0.152117282 1.60710627,-0.826060641 3.60242141,1.15754776 L7.78300922,5.31360759 C8.66614945,6.19156633 9.79486489,7.31037604 10.951948,8.45522362 Z M9.30596405,30.2131465 C10.4740418,30.2131465 11.4209559,29.2764779 11.4209559,28.1210385 C11.4209559,26.9655992 10.4740418,26.0289306 9.30596405,26.0289306 C8.13788632,26.0289306 7.19097222,26.9655992 7.19097222,28.1210385 C7.19097222,29.2764779 8.13788632,30.2131465 9.30596405,30.2131465 Z M2.11499183,25.2456101 C2.11499183,22.4429959 4.38045974,20.1710283 7.20050034,20.1710283 L42.7133069,20.1710283 C45.5219557,20.1710283 47.7988154,22.4491135 47.7988154,25.2456101 L47.7988154,30.996467 C47.7988154,33.7990812 45.5333475,36.0710488 42.7133069,36.0710488 L7.20050034,36.0710488 C4.39185155,36.0710488 2.11499183,33.7929636 2.11499183,30.996467 L2.11499183,25.2456101 Z" id="octocat"></path>
        </g>
    </g>
</svg>
